<svg width="61" height="60" viewBox="0 0 61 60" fill="none" xmlns="http://www.w3.org/2000/svg">
<path fill-rule="evenodd" clip-rule="evenodd" d="M3 3.65625C4.38071 3.65625 5.5 4.77554 5.5 6.15625V18.6562H18C19.3807 18.6562 20.5 19.7755 20.5 21.1562C20.5 22.537 19.3807 23.6562 18 23.6562H3C1.61929 23.6562 0.5 22.537 0.5 21.1562V6.15625C0.5 4.77554 1.61929 3.65625 3 3.65625Z" fill="white"/>
<path fill-rule="evenodd" clip-rule="evenodd" d="M26.1159 0.578247C31.6962 -0.581294 37.4808 0.0113766 42.7381 2.28129C47.9954 4.5512 52.4891 8.39636 55.6508 13.3304C58.8124 18.2644 60.5 24.0655 60.5 30C60.5 35.9345 58.8124 41.7357 55.6508 46.6697C52.4891 51.6037 47.9954 55.4488 42.7381 57.7187C37.4808 59.9886 31.6962 60.5813 26.1159 59.4218C20.5356 58.2622 15.4104 55.4026 11.3886 51.2046C10.4529 50.2278 10.4535 48.6449 11.39 47.669C12.3264 46.6931 13.8441 46.6938 14.7798 47.6705C18.1313 51.1688 22.4023 53.5519 27.0526 54.5181C31.7028 55.4844 36.5234 54.9905 40.9044 53.0989C45.2855 51.2074 49.0303 48.0031 51.665 43.8914C54.2997 39.7797 55.706 34.9454 55.706 30C55.706 25.0546 54.2997 20.2203 51.665 16.1086C49.0303 11.997 45.2855 8.79266 40.9044 6.90107C36.5234 5.00948 31.7028 4.51559 27.0526 5.48187C22.4023 6.44816 18.1313 8.83121 14.7798 12.3296L14.7767 12.3329L4.58943 22.9266C3.65196 23.9015 2.13427 23.8992 1.19957 22.9214C0.264864 21.9437 0.267099 20.3608 1.20456 19.3859L11.3886 8.79547C11.3891 8.79491 11.3897 8.79434 11.3902 8.79378C15.4117 4.59668 20.5363 1.73763 26.1159 0.578247Z" fill="white"/>
<path fill-rule="evenodd" clip-rule="evenodd" d="M28.0581 10.7446C28.0521 10.093 28.5755 9.55923 29.2271 9.55241L35.9014 9.48255C36.553 9.47573 37.0862 9.99845 37.0922 10.6501C37.0982 11.3017 36.5748 11.8355 35.9232 11.8423L29.2489 11.9122C28.5972 11.919 28.0641 11.3963 28.0581 10.7446Z" fill="white"/>
<path fill-rule="evenodd" clip-rule="evenodd" d="M31.0627 9.54516C31.7086 9.63056 32.1623 10.2235 32.0761 10.8696L30.5152 22.5672C30.4919 22.7419 30.4298 22.9092 30.3334 23.0568L27.2378 27.7982L27.3973 45.0985C27.3973 45.0997 27.3973 45.1009 27.3974 45.1021C27.4035 45.4146 27.5318 45.7121 27.7549 45.9308C27.9779 46.1495 28.2779 46.2719 28.5904 46.2719C28.5916 46.2719 28.5928 46.2719 28.594 46.2719L37.2114 46.1817C37.2127 46.1817 37.2139 46.1816 37.2152 46.1816C37.5276 46.1751 37.8252 46.0464 38.0441 45.8231C38.2631 45.5998 38.3859 45.2997 38.3863 44.9872C38.3863 44.986 38.3863 44.9848 38.3863 44.9835L38.2267 27.6832L35.0443 23.0075C34.9452 22.8619 34.8801 22.696 34.8535 22.5218L33.0773 10.8591C32.9792 10.215 33.4219 9.61263 34.0661 9.51372C34.7103 9.41481 35.3121 9.85679 35.4102 10.5009L37.1462 21.8991L40.379 26.6488C40.51 26.8413 40.581 27.0683 40.5832 27.3012L40.7461 44.9762C40.7478 45.9099 40.3821 46.8071 39.7281 47.4742C39.074 48.1413 38.1841 48.5245 37.2506 48.5412L37.2419 48.5414L28.5983 48.6318C27.6647 48.6347 26.7679 48.2701 26.1017 47.6168C25.4355 46.9636 25.0533 46.0742 25.0378 45.1407L25.0377 45.132L24.8748 27.4657C24.8727 27.2327 24.9395 27.0043 25.0669 26.8091L28.2115 21.9926L29.737 10.5603C29.8232 9.91425 30.4167 9.45976 31.0627 9.54516Z" fill="white"/>
<path fill-rule="evenodd" clip-rule="evenodd" d="M24.9056 30.8027C24.8996 30.1511 25.4229 29.6173 26.0746 29.6105L39.4232 29.4708C40.0748 29.464 40.6079 29.9867 40.6139 30.6383C40.6199 31.2899 40.0966 31.8237 39.4449 31.8305L26.0963 31.9703C25.4447 31.9771 24.9116 31.4544 24.9056 30.8027Z" fill="white"/>
<path fill-rule="evenodd" clip-rule="evenodd" d="M25.0133 42.4829C25.0073 41.8313 25.5306 41.2975 26.1823 41.2907L39.5309 41.151C40.1825 41.1441 40.7156 41.6669 40.7216 42.3185C40.7276 42.9701 40.2043 43.5039 39.5526 43.5107L26.204 43.6504C25.5524 43.6573 25.0193 43.1345 25.0133 42.4829Z" fill="white"/>
</svg>
