<svg width="61" height="60" viewBox="0 0 61 60" fill="none" xmlns="http://www.w3.org/2000/svg">
<g clip-path="url(#clip0_535_769)">
<path d="M30.5 0C14.1687 0 0.8825 13.0538 0.5075 29.295C0.8525 15.1237 11.63 3.75 24.875 3.75C38.3375 3.75 49.25 15.5025 49.25 30C49.25 33.105 51.77 35.625 54.875 35.625C57.98 35.625 60.5 33.105 60.5 30C60.5 13.4325 47.0675 0 30.5 0ZM30.5 60C46.8312 60 60.1175 46.9462 60.4925 30.705C60.1475 44.8762 49.37 56.25 36.125 56.25C22.6625 56.25 11.75 44.4975 11.75 30C11.75 26.895 9.23 24.375 6.125 24.375C3.02 24.375 0.5 26.895 0.5 30C0.5 46.5675 13.9325 60 30.5 60Z" fill="white"/>
</g>
<g clip-path="url(#clip1_535_769)">
<path d="M48.5 23.9591L36.062 22.1523L30.5 10.8821L24.938 22.1523L12.5 23.9591L21.5 32.7318L19.376 45.1181L30.5 39.2703L41.624 45.1181L39.5 32.7318L48.5 23.9591ZM30.5 36.4893L22.643 40.6203L24.1438 31.8723L17.7875 25.6781L26.5715 24.4023L30.5 16.4441L34.4285 24.4023L43.2125 25.6781L36.8562 31.8723L38.357 40.6203L30.5 36.4893Z" fill="white"/>
</g>
<defs>
<clipPath id="clip0_535_769">
<rect width="60" height="60" fill="white" transform="translate(0.5)"/>
</clipPath>
<clipPath id="clip1_535_769">
<rect width="36" height="36" fill="white" transform="translate(12.5 10)"/>
</clipPath>
</defs>
</svg>
