<svg width="61" height="60" viewBox="0 0 61 60" fill="none" xmlns="http://www.w3.org/2000/svg">
<g clip-path="url(#clip0_535_775)">
<path d="M30.5 0C14.1687 0 0.8825 13.0537 0.5075 29.295C0.8525 15.1237 11.63 3.75 24.875 3.75C38.3375 3.75 49.25 15.5025 49.25 30C49.25 33.105 51.77 35.625 54.875 35.625C57.98 35.625 60.5 33.105 60.5 30C60.5 13.4325 47.0675 0 30.5 0ZM30.5 60C46.8313 60 60.1175 46.9462 60.4925 30.705C60.1475 44.8762 49.37 56.25 36.125 56.25C22.6625 56.25 11.75 44.4975 11.75 30C11.75 26.895 9.23 24.375 6.125 24.375C3.02 24.375 0.5 26.895 0.5 30C0.5 46.5675 13.9325 60 30.5 60Z" fill="white"/>
<path fill-rule="evenodd" clip-rule="evenodd" d="M30.875 36.3516C31.5352 36.3516 32.0703 36.8867 32.0703 37.5469V45.9141C32.0703 46.5742 31.5352 47.1094 30.875 47.1094C30.2148 47.1094 29.6797 46.5742 29.6797 45.9141V37.5469C29.6797 36.8867 30.2148 36.3516 30.875 36.3516Z" fill="white"/>
<path fill-rule="evenodd" clip-rule="evenodd" d="M23.7031 45.9141C23.7031 45.2539 24.2383 44.7188 24.8984 44.7188H36.8516C37.5117 44.7188 38.0469 45.2539 38.0469 45.9141C38.0469 46.5742 37.5117 47.1094 36.8516 47.1094H24.8984C24.2383 47.1094 23.7031 46.5742 23.7031 45.9141Z" fill="white"/>
<path fill-rule="evenodd" clip-rule="evenodd" d="M22.5568 14.4971C22.707 13.9892 23.1735 13.6406 23.7031 13.6406H38.0469C38.5765 13.6406 39.043 13.9892 39.1932 14.4971L43.0944 27.6954C43.4144 28.7958 43.3298 29.9744 42.856 31.0178C41.8143 33.3222 40.13 35.2773 38.0052 36.6487C35.8801 38.0204 33.4044 38.7499 30.875 38.7499C28.3456 38.7499 25.87 38.0204 23.7448 36.6487C21.6196 35.2771 19.9352 33.3216 18.8935 31.0167C18.4201 29.9736 18.3357 28.7954 18.6557 27.6954L18.6571 27.6904L22.5568 14.4971ZM24.5963 16.0313L20.9512 28.363C20.951 28.3638 20.9507 28.3645 20.9505 28.3653C20.7907 28.9167 20.8334 29.5072 21.071 30.0299L21.0719 30.0321C21.9243 31.9179 23.3024 33.5179 25.0412 34.6401C26.78 35.7624 28.8055 36.3593 30.875 36.3593C32.9445 36.3593 34.97 35.7624 36.7088 34.6401C38.4476 33.5179 39.8257 31.9179 40.6781 30.0321L40.6791 30.0299C40.9166 29.5072 40.9593 28.9167 40.7995 28.3652C40.7993 28.3645 40.799 28.3638 40.7988 28.363L37.1538 16.0313H24.5963Z" fill="white"/>
<path fill-rule="evenodd" clip-rule="evenodd" d="M30.3413 27.8586C25.4642 25.4272 22.2011 26.5934 20.9074 27.289C20.326 27.6017 19.6012 27.3838 19.2885 26.8024C18.9759 26.221 19.1938 25.4962 19.7752 25.1835C21.6491 24.1759 25.737 22.8917 31.4083 25.7194L31.4095 25.72C36.5939 28.3122 39.9703 26.8224 41.0841 26.1637C41.6523 25.8276 42.3854 26.0158 42.7214 26.5841C43.0575 27.1523 42.8692 27.8853 42.301 28.2214C40.6358 29.2062 36.3924 30.8839 30.3413 27.8586Z" fill="white"/>
</g>
<defs>
<clipPath id="clip0_535_775">
<rect width="60" height="60" fill="white" transform="translate(0.5)"/>
</clipPath>
</defs>
</svg>
