<svg width="51" height="50" viewBox="0 0 51 50" fill="none" xmlns="http://www.w3.org/2000/svg">
<g clip-path="url(#clip0_564_781)">
<path d="M25.5 4.1665C17.4375 4.1665 10.9167 10.6873 10.9167 18.7498C10.9167 29.6873 25.5 45.8332 25.5 45.8332C25.5 45.8332 40.0833 29.6873 40.0833 18.7498C40.0833 10.6873 33.5625 4.1665 25.5 4.1665ZM15.0833 18.7498C15.0833 12.9998 19.75 8.33317 25.5 8.33317C31.25 8.33317 35.9167 12.9998 35.9167 18.7498C35.9167 24.7498 29.9167 33.729 25.5 39.3332C21.1667 33.7707 15.0833 24.6873 15.0833 18.7498Z" fill="white"/>
<path d="M25.5 23.9582C28.3765 23.9582 30.7083 21.6263 30.7083 18.7498C30.7083 15.8734 28.3765 13.5415 25.5 13.5415C22.6235 13.5415 20.2917 15.8734 20.2917 18.7498C20.2917 21.6263 22.6235 23.9582 25.5 23.9582Z" fill="white"/>
</g>
<defs>
<clipPath id="clip0_564_781">
<rect width="50" height="50" fill="white" transform="translate(0.5)"/>
</clipPath>
</defs>
</svg>
