<svg width="24" height="25" viewBox="0 0 24 25" fill="none" xmlns="http://www.w3.org/2000/svg">
<g clip-path="url(#clip0_514_4151)">
<path d="M16.5 15.4062C15 16.9062 15 18.4062 13.5 18.4062C12 18.4062 10.5 16.9062 9 15.4062C7.5 13.9062 6 12.4062 6 10.9062C6 9.40625 7.5 9.40625 9 7.90625C10.5 6.40625 6 1.90625 4.5 1.90625C3 1.90625 0 6.40625 0 6.40625C0 9.40625 3.0825 15.4887 6 18.4062C8.9175 21.3237 15 24.4062 18 24.4062C18 24.4062 22.5 21.4062 22.5 19.9062C22.5 18.4062 18 13.9062 16.5 15.4062Z" fill="#A31886"/>
</g>
<defs>
<clipPath id="clip0_514_4151">
<rect width="24" height="24" fill="white" transform="translate(0 0.40625)"/>
</clipPath>
</defs>
</svg>
