<svg width="96" height="120" viewBox="0 0 96 120" fill="none" xmlns="http://www.w3.org/2000/svg">
<path d="M59.4643 56.6122C87.7857 60.1783 96 73.4087 96 87.1382C96 106.431 79.9285 120 52.9821 120C47.625 120 36.9107 119.501 22.2142 119.501C13.8036 119.501 4.98214 119.661 0 120V116.594C12.1429 116.113 14.5179 114.366 14.5179 102.045V17.9912C14.5179 5.67013 12.1429 3.92273 0 3.42348V0C4.98214 0.338783 13.9821 0.499257 21.8572 0.499257C33.1428 0.499257 44.5893 0.160476 48.8749 0.160476C73.875 0.160476 86.6607 11.1798 86.6607 26.9064C86.6607 38.9063 79.5179 50.5676 59.4643 56.3625V56.6122ZM31.125 17.9912V56.2733H43.1964C64.2678 56.2733 69.5179 43.3641 69.5179 28.6359C69.5179 12 62.375 3.38781 44.4107 3.38781C33.4821 3.38781 31.125 6.2942 31.125 17.9912ZM78.0893 86.425C78.0893 69.2184 68.8929 59.1976 46.1606 59.1976H31.125V101.991C31.125 113.813 33.4822 116.059 44.5893 116.059C68.0179 116.059 78.0893 105.361 78.0893 86.3893V86.425Z" fill="white"/>
</svg>
