<svg width="61" height="60" viewBox="0 0 61 60" fill="none" xmlns="http://www.w3.org/2000/svg">
<path fill-rule="evenodd" clip-rule="evenodd" d="M57.5781 5.15625C58.9588 5.15625 60.0781 6.27554 60.0781 7.65625V20.1562C60.0781 21.537 58.9588 22.6562 57.5781 22.6562H45.0781C43.6974 22.6562 42.5781 21.537 42.5781 20.1562C42.5781 18.7755 43.6974 17.6562 45.0781 17.6562H55.0781V7.65625C55.0781 6.27554 56.1974 5.15625 57.5781 5.15625Z" fill="white"/>
<path fill-rule="evenodd" clip-rule="evenodd" d="M33.9474 5.48187C29.2972 4.51559 24.4766 5.00948 20.0956 6.90107C15.7145 8.79266 11.9697 11.997 9.33501 16.1086C6.70029 20.2203 5.29399 25.0546 5.29399 30C5.29399 34.9454 6.70029 39.7797 9.33501 43.8914C11.9697 48.0031 15.7145 51.2074 20.0956 53.0989C24.4766 54.9905 29.2972 55.4844 33.9474 54.5181C38.5977 53.5519 42.8687 51.1688 46.2202 47.6705C47.1559 46.6938 48.6736 46.6931 49.61 47.669C50.5465 48.6449 50.5471 50.2278 49.6114 51.2046C45.5896 55.4026 40.4644 58.2622 34.8841 59.4218C29.3038 60.5813 23.5192 59.9886 18.2619 57.7187C13.0046 55.4488 8.51089 51.6037 5.34923 46.6697C2.18757 41.7357 0.5 35.9345 0.5 30C0.5 24.0655 2.18757 18.2644 5.34923 13.3304C8.51089 8.39636 13.0046 4.55119 18.2619 2.28129C23.5192 0.0113766 29.3038 -0.581294 34.8841 0.578247C40.4638 1.73766 45.5885 4.59683 49.6101 8.79411C49.6097 8.79366 49.6105 8.79456 49.6101 8.79411L59.7954 19.3859C60.7329 20.3608 60.7351 21.9437 59.8004 22.9214C58.8657 23.8992 57.348 23.9015 56.4106 22.9266L46.2202 12.3296C42.8687 8.83121 38.5977 6.44816 33.9474 5.48187Z" fill="white"/>
<path fill-rule="evenodd" clip-rule="evenodd" d="M19.1657 38.25C19.1657 37.601 19.6918 37.075 20.3407 37.075H33.2657C33.9146 37.075 34.4407 37.601 34.4407 38.25C34.4407 38.8989 33.9146 39.425 33.2657 39.425H20.3407C19.6918 39.425 19.1657 38.8989 19.1657 38.25Z" fill="white"/>
<path fill-rule="evenodd" clip-rule="evenodd" d="M23.8657 18.2749C23.8657 17.6259 24.3918 17.0999 25.0407 17.0999H33.8532C36.1904 17.0999 38.4319 18.0283 40.0846 19.681C41.7373 21.3336 42.6657 23.5751 42.6657 25.9124C42.6657 28.2496 41.7373 30.4911 40.0846 32.1437C38.4319 33.7964 36.1904 34.7249 33.8532 34.7249H26.2157V44.1248C26.2157 44.7738 25.6896 45.2999 25.0407 45.2999C24.3918 45.2999 23.8657 44.7738 23.8657 44.1248V34.7249H20.3407C19.6918 34.7249 19.1657 34.1988 19.1657 33.5499C19.1657 32.9009 19.6918 32.3749 20.3407 32.3749H23.8657V18.2749ZM26.2157 32.3749H33.8532C35.5672 32.3749 37.2109 31.694 38.4229 30.482C39.6348 29.2701 40.3157 27.6263 40.3157 25.9124C40.3157 24.1984 39.6348 22.5546 38.4229 21.3427C37.2109 20.1307 35.5672 19.4499 33.8532 19.4499H26.2157V32.3749Z" fill="white"/>
</svg>
