<svg xmlns="http://www.w3.org/2000/svg" width="233" height="40" viewBox="0 0 233 40" fill="none">
  <path d="M19.8928 18.6455C29.129 19.8032 31.8079 24.0984 31.8079 28.5557C31.8079 34.819 26.5666 39.2243 17.7788 39.2243C16.0317 39.2243 12.5375 39.0622 7.74468 39.0622C5.00178 39.0622 2.12491 39.1143 0.500122 39.2243V38.1186C4.46018 37.9623 5.23474 37.395 5.23474 33.395V6.10717C5.23474 2.10716 4.46018 1.53987 0.500122 1.37779V0.266357C2.12491 0.376343 5.06001 0.428441 7.62825 0.428441C11.3087 0.428441 15.0417 0.318456 16.4393 0.318456C24.5924 0.318456 28.7621 3.89586 28.7621 9.00148C28.7621 12.8973 26.4327 16.6831 19.8928 18.5644V18.6455ZM10.6507 6.10717V18.5354H14.5874C21.4593 18.5354 23.1715 14.3445 23.1715 9.56298C23.1715 4.16215 20.842 1.36621 14.9835 1.36621C11.4194 1.36621 10.6507 2.30976 10.6507 6.10717ZM25.9668 28.3242C25.9668 22.738 22.9676 19.4848 15.5541 19.4848H10.6507V33.3777C10.6507 37.2156 11.4194 37.945 15.0417 37.945C22.6823 37.945 25.9668 34.4717 25.9668 28.3126V28.3242Z" fill="#1B1B1B"/>
  <path d="M66.8021 39.2243C62.8419 39.0622 57.3386 39.0622 53.4076 39.0622C49.9138 39.0622 42.1973 39.0622 36.4669 39.2243V38.1186C40.4328 37.9623 41.2015 37.395 41.2015 33.395V6.10717C41.2015 2.10716 40.4328 1.53987 36.4669 1.37779V0.266357C42.1973 0.428441 49.896 0.428441 53.4076 0.428441C56.9196 0.428441 61.9916 0.428441 65.6374 0.266357C65.3521 2.84811 65.2531 5.52829 65.2531 6.76707C65.2412 7.90782 65.2978 9.04825 65.4219 10.1824H64.0883C63.2965 3.68169 62.4111 1.52829 56.2263 1.52829H51.3752C47.4095 1.52829 46.6177 2.09558 46.6177 6.10717V19.0738H50.5195C55.5974 19.0738 55.481 14.4429 55.9411 11.8206H57.2806C57.1058 14.136 57.0766 15.7395 57.0766 17.0304C57.0766 18.0492 57.1058 18.8538 57.1058 19.6585C57.1058 21.4587 57.1638 23.288 57.4495 27.479H56.11C55.6558 23.9595 55.5974 20.1968 50.5195 20.1968H46.6177V33.395C46.6177 37.395 47.4095 37.945 51.3752 37.945H55.6558C62.9528 37.945 64.3909 35.4732 65.2357 28.191H66.5748C66.4516 29.5129 66.395 30.8402 66.4059 32.1679C66.4178 33.5571 66.5169 36.4283 66.8021 39.2243Z" fill="#1B1B1B"/>
  <path d="M108.156 36.4804C106.502 38.738 105.046 40 101.913 40C99.0011 40 96.7474 38.738 95.6351 34.0376L94.3714 28.5557C93.2591 23.8842 92.4029 20.741 87.7846 20.741H82.2233V33.3951C82.2233 37.3951 82.9919 37.9623 86.958 38.1186V39.2242C85.1643 39.1143 82.2233 39.0622 79.5442 39.0622C76.5219 39.0622 73.7209 39.1143 72.0729 39.2242V38.1186C76.0326 37.9623 76.8071 37.3951 76.8071 33.3951V6.10717C76.8071 2.10716 76.0326 1.53987 72.0729 1.37779V0.266357C73.6977 0.376343 76.6323 0.428441 79.201 0.428441C82.8814 0.428441 86.6143 0.318456 88.0118 0.318456C97.4229 0.318456 102.099 4.50947 102.099 9.88717C102.099 13.7019 99.5602 19.1491 90.7489 20.4689L91.4595 20.5789C96.6483 21.3835 98.5292 23.2648 99.6414 27.8321L101.097 33.4471C101.808 36.6425 102.466 37.9623 104.091 37.9623C105.518 37.9623 106.199 37.1519 107.282 35.8668L108.156 36.4804ZM82.2059 6.10717V19.6353H86.1424C94.412 19.6353 96.2349 15.5832 96.2349 10.5008C96.2349 4.7121 93.6142 1.36621 86.5386 1.36621C82.9745 1.36621 82.2059 2.30976 82.2059 6.10717Z" fill="#1B1B1B"/>
  <path d="M155.868 1.36621C151.902 1.52829 151.134 2.09558 151.134 6.09555V33.395C151.134 37.395 151.902 37.9623 155.868 38.1186V39.2242C154.045 39.1143 151.133 39.0621 148.454 39.0621C145.403 39.0621 142.631 39.1143 140.983 39.2242V38.1186C144.949 37.9623 145.688 37.395 145.688 33.395V3.94796L131.641 39.4905H130.698L115.97 3.79167V32.8278C115.97 36.8798 116.745 37.9623 121.276 38.1186V39.2242C119.878 39.1143 117.315 39.0621 115.318 39.0621C113.321 39.0621 111.183 39.1143 109.896 39.2242V38.1186C113.862 37.9623 114.631 36.8567 114.631 32.8278V6.10717C114.631 2.10716 113.862 1.53987 109.896 1.37779V0.266357C111.183 0.376343 113.35 0.428441 115.318 0.428441C117.03 0.428441 119.022 0.376343 120.309 0.266357L133.121 32.1852L145.688 0.428441H148.454C151.133 0.428441 154.045 0.376343 155.868 0.266357V1.36621Z" fill="#1B1B1B"/>
  <path d="M191.433 34.5989C192.598 37.3949 194.258 38.0722 195.481 38.1185V39.2241C193.885 39.1141 191.433 39.062 189.209 39.062C186.187 39.062 183.385 39.1141 181.737 39.2241V38.1185C184.562 38.0143 185.872 37.6091 185.872 36.0808C185.816 35.1877 185.595 34.3124 185.22 33.4991L181.627 24.4746H167.51L165.111 30.3037C164.439 31.7221 164.044 33.2542 163.946 34.8189C163.946 37.2097 165.693 38.0432 169.018 38.1185V39.2241C166.794 39.1141 164.359 39.062 162.292 39.062C160.225 39.062 159.095 39.1141 157.925 39.2241V38.1185C159.439 37.8001 161.18 36.6423 162.519 33.337L176.263 0H177.206L191.433 34.5989ZM174.638 6.958L167.935 23.3689H181.143L174.638 6.958Z" fill="#1B1B1B"/>
  <path d="M232.5 36.4804C230.847 38.738 229.391 40 226.257 40C223.316 40 221.092 38.738 219.98 34.0376L218.699 28.5557C217.586 23.8842 216.73 20.741 212.112 20.741H206.55V33.3951C206.55 37.3951 207.319 37.9623 211.285 38.1186V39.2242C209.486 39.1143 206.55 39.0622 203.866 39.0622C200.844 39.0622 198.043 39.1143 196.4 39.2242V38.1186C200.36 37.9623 201.129 37.3951 201.129 33.3951V6.10717C201.129 2.10716 200.36 1.53987 196.4 1.37779V0.266357C198.025 0.376343 200.96 0.428441 203.528 0.428441C207.203 0.428441 210.941 0.318456 212.339 0.318456C221.75 0.318456 226.426 4.50947 226.426 9.88717C226.426 13.7019 223.887 19.1491 215.076 20.4689L215.787 20.5789C220.981 21.3835 222.862 23.2648 223.975 27.8321L225.43 33.4471C226.141 36.6425 226.799 37.9623 228.424 37.9623C229.845 37.9623 230.532 37.1519 231.615 35.8668L232.5 36.4804ZM206.55 6.10717V19.6353H210.481C218.757 19.6353 220.579 15.5832 220.579 10.5008C220.579 4.7121 217.959 1.36621 210.884 1.36621C207.348 1.36621 206.55 2.30976 206.55 6.10717Z" fill="#1B1B1B"/>
  <path d="M229.025 0.653969H228.069V3.09679H227.732V0.653969H226.776V0.347168H229.042L229.025 0.653969Z" fill="#1B1B1B"/>
  <path d="M231.808 3.09679V0.966556L230.9 2.6337H230.696L229.777 0.9955V3.09679H229.421V0.347168H229.794L230.795 2.13587L231.808 0.347168H232.175V3.09679H231.808Z" fill="#1B1B1B"/>
</svg>