<!-- logo -->
<svg width="100%" height="100%"  xmlns="http://www.w3.org/2000/svg">
  <symbol viewBox="0 0 233 40" id="logo">
    <path d="M19.8928 18.6455C29.129 19.8032 31.8079 24.0984 31.8079 28.5557C31.8079 34.819 26.5666 39.2243 17.7788 39.2243C16.0317 39.2243 12.5375 39.0622 7.74468 39.0622C5.00178 39.0622 2.12491 39.1143 0.500122 39.2243V38.1186C4.46018 37.9623 5.23474 37.395 5.23474 33.395V6.10717C5.23474 2.10716 4.46018 1.53987 0.500122 1.37779V0.266357C2.12491 0.376343 5.06001 0.428441 7.62825 0.428441C11.3087 0.428441 15.0417 0.318456 16.4393 0.318456C24.5924 0.318456 28.7621 3.89586 28.7621 9.00148C28.7621 12.8973 26.4327 16.6831 19.8928 18.5644V18.6455ZM10.6507 6.10717V18.5354H14.5874C21.4593 18.5354 23.1715 14.3445 23.1715 9.56298C23.1715 4.16215 20.842 1.36621 14.9835 1.36621C11.4194 1.36621 10.6507 2.30976 10.6507 6.10717ZM25.9668 28.3242C25.9668 22.738 22.9676 19.4848 15.5541 19.4848H10.6507V33.3777C10.6507 37.2156 11.4194 37.945 15.0417 37.945C22.6823 37.945 25.9668 34.4717 25.9668 28.3126V28.3242Z"/>
  <path d="M66.8021 39.2243C62.8419 39.0622 57.3386 39.0622 53.4076 39.0622C49.9138 39.0622 42.1973 39.0622 36.4669 39.2243V38.1186C40.4328 37.9623 41.2015 37.395 41.2015 33.395V6.10717C41.2015 2.10716 40.4328 1.53987 36.4669 1.37779V0.266357C42.1973 0.428441 49.896 0.428441 53.4076 0.428441C56.9196 0.428441 61.9916 0.428441 65.6374 0.266357C65.3521 2.84811 65.2531 5.52829 65.2531 6.76707C65.2412 7.90782 65.2978 9.04825 65.4219 10.1824H64.0883C63.2965 3.68169 62.4111 1.52829 56.2263 1.52829H51.3752C47.4095 1.52829 46.6177 2.09558 46.6177 6.10717V19.0738H50.5195C55.5974 19.0738 55.481 14.4429 55.9411 11.8206H57.2806C57.1058 14.136 57.0766 15.7395 57.0766 17.0304C57.0766 18.0492 57.1058 18.8538 57.1058 19.6585C57.1058 21.4587 57.1638 23.288 57.4495 27.479H56.11C55.6558 23.9595 55.5974 20.1968 50.5195 20.1968H46.6177V33.395C46.6177 37.395 47.4095 37.945 51.3752 37.945H55.6558C62.9528 37.945 64.3909 35.4732 65.2357 28.191H66.5748C66.4516 29.5129 66.395 30.8402 66.4059 32.1679C66.4178 33.5571 66.5169 36.4283 66.8021 39.2243Z"/>
  <path d="M108.156 36.4804C106.502 38.738 105.046 40 101.913 40C99.0011 40 96.7474 38.738 95.6351 34.0376L94.3714 28.5557C93.2591 23.8842 92.4029 20.741 87.7846 20.741H82.2233V33.3951C82.2233 37.3951 82.9919 37.9623 86.958 38.1186V39.2242C85.1643 39.1143 82.2233 39.0622 79.5442 39.0622C76.5219 39.0622 73.7209 39.1143 72.0729 39.2242V38.1186C76.0326 37.9623 76.8071 37.3951 76.8071 33.3951V6.10717C76.8071 2.10716 76.0326 1.53987 72.0729 1.37779V0.266357C73.6977 0.376343 76.6323 0.428441 79.201 0.428441C82.8814 0.428441 86.6143 0.318456 88.0118 0.318456C97.4229 0.318456 102.099 4.50947 102.099 9.88717C102.099 13.7019 99.5602 19.1491 90.7489 20.4689L91.4595 20.5789C96.6483 21.3835 98.5292 23.2648 99.6414 27.8321L101.097 33.4471C101.808 36.6425 102.466 37.9623 104.091 37.9623C105.518 37.9623 106.199 37.1519 107.282 35.8668L108.156 36.4804ZM82.2059 6.10717V19.6353H86.1424C94.412 19.6353 96.2349 15.5832 96.2349 10.5008C96.2349 4.7121 93.6142 1.36621 86.5386 1.36621C82.9745 1.36621 82.2059 2.30976 82.2059 6.10717Z"/>
  <path d="M155.868 1.36621C151.902 1.52829 151.134 2.09558 151.134 6.09555V33.395C151.134 37.395 151.902 37.9623 155.868 38.1186V39.2242C154.045 39.1143 151.133 39.0621 148.454 39.0621C145.403 39.0621 142.631 39.1143 140.983 39.2242V38.1186C144.949 37.9623 145.688 37.395 145.688 33.395V3.94796L131.641 39.4905H130.698L115.97 3.79167V32.8278C115.97 36.8798 116.745 37.9623 121.276 38.1186V39.2242C119.878 39.1143 117.315 39.0621 115.318 39.0621C113.321 39.0621 111.183 39.1143 109.896 39.2242V38.1186C113.862 37.9623 114.631 36.8567 114.631 32.8278V6.10717C114.631 2.10716 113.862 1.53987 109.896 1.37779V0.266357C111.183 0.376343 113.35 0.428441 115.318 0.428441C117.03 0.428441 119.022 0.376343 120.309 0.266357L133.121 32.1852L145.688 0.428441H148.454C151.133 0.428441 154.045 0.376343 155.868 0.266357V1.36621Z"/>
  <path d="M191.433 34.5989C192.598 37.3949 194.258 38.0722 195.481 38.1185V39.2241C193.885 39.1141 191.433 39.062 189.209 39.062C186.187 39.062 183.385 39.1141 181.737 39.2241V38.1185C184.562 38.0143 185.872 37.6091 185.872 36.0808C185.816 35.1877 185.595 34.3124 185.22 33.4991L181.627 24.4746H167.51L165.111 30.3037C164.439 31.7221 164.044 33.2542 163.946 34.8189C163.946 37.2097 165.693 38.0432 169.018 38.1185V39.2241C166.794 39.1141 164.359 39.062 162.292 39.062C160.225 39.062 159.095 39.1141 157.925 39.2241V38.1185C159.439 37.8001 161.18 36.6423 162.519 33.337L176.263 0H177.206L191.433 34.5989ZM174.638 6.958L167.935 23.3689H181.143L174.638 6.958Z"/>
  <path d="M232.5 36.4804C230.847 38.738 229.391 40 226.257 40C223.316 40 221.092 38.738 219.98 34.0376L218.699 28.5557C217.586 23.8842 216.73 20.741 212.112 20.741H206.55V33.3951C206.55 37.3951 207.319 37.9623 211.285 38.1186V39.2242C209.486 39.1143 206.55 39.0622 203.866 39.0622C200.844 39.0622 198.043 39.1143 196.4 39.2242V38.1186C200.36 37.9623 201.129 37.3951 201.129 33.3951V6.10717C201.129 2.10716 200.36 1.53987 196.4 1.37779V0.266357C198.025 0.376343 200.96 0.428441 203.528 0.428441C207.203 0.428441 210.941 0.318456 212.339 0.318456C221.75 0.318456 226.426 4.50947 226.426 9.88717C226.426 13.7019 223.887 19.1491 215.076 20.4689L215.787 20.5789C220.981 21.3835 222.862 23.2648 223.975 27.8321L225.43 33.4471C226.141 36.6425 226.799 37.9623 228.424 37.9623C229.845 37.9623 230.532 37.1519 231.615 35.8668L232.5 36.4804ZM206.55 6.10717V19.6353H210.481C218.757 19.6353 220.579 15.5832 220.579 10.5008C220.579 4.7121 217.959 1.36621 210.884 1.36621C207.348 1.36621 206.55 2.30976 206.55 6.10717Z"/>
  <path d="M229.025 0.653969H228.069V3.09679H227.732V0.653969H226.776V0.347168H229.042L229.025 0.653969Z"/>
  <path d="M231.808 3.09679V0.966556L230.9 2.6337H230.696L229.777 0.9955V3.09679H229.421V0.347168H229.794L230.795 2.13587L231.808 0.347168H232.175V3.09679H231.808Z"/>
  </symbol> 

  <!-- advantages -->
    <symbol viewBox="0 0 61 60" id="icon_premium">
      <g clip-path="url(#clip0_535_769)">
       <path d="M30.5 0C14.1687 0 0.8825 13.0538 0.5075 29.295C0.8525 15.1237 11.63 3.75 24.875 3.75C38.3375 3.75 49.25 15.5025 49.25 30C49.25 33.105 51.77 35.625 54.875 35.625C57.98 35.625 60.5 33.105 60.5 30C60.5 13.4325 47.0675 0 30.5 0ZM30.5 60C46.8312 60 60.1175 46.9462 60.4925 30.705C60.1475 44.8762 49.37 56.25 36.125 56.25C22.6625 56.25 11.75 44.4975 11.75 30C11.75 26.895 9.23 24.375 6.125 24.375C3.02 24.375 0.5 26.895 0.5 30C0.5 46.5675 13.9325 60 30.5 60Z" fill="white"/>
      </g>
      <g clip-path="url(#clip1_535_769)">
       <path d="M48.5 23.9591L36.062 22.1523L30.5 10.8821L24.938 22.1523L12.5 23.9591L21.5 32.7318L19.376 45.1181L30.5 39.2703L41.624 45.1181L39.5 32.7318L48.5 23.9591ZM30.5 36.4893L22.643 40.6203L24.1438 31.8723L17.7875 25.6781L26.5715 24.4023L30.5 16.4441L34.4285 24.4023L43.2125 25.6781L36.8562 31.8723L38.357 40.6203L30.5 36.4893Z" fill="white"/>
      </g>
      <defs>
       <clipPath id="clip0_535_769">
        <rect width="60" height="60" fill="white" transform="translate(0.5)"/>
       </clipPath>
       <clipPath id="clip1_535_769">
        <rect width="36" height="36" fill="white" transform="translate(12.5 10)"/>
       </clipPath>
      </defs>
    </symbol> 

    <symbol viewBox="0 0 61 60" id="icon_preservation_quality">
     <path fill-rule="evenodd" clip-rule="evenodd" d="M3 3.65625C4.38071 3.65625 5.5 4.77554 5.5 6.15625V18.6562H18C19.3807 18.6562 20.5 19.7755 20.5 21.1562C20.5 22.537 19.3807 23.6562 18 23.6562H3C1.61929 23.6562 0.5 22.537 0.5 21.1562V6.15625C0.5 4.77554 1.61929 3.65625 3 3.65625Z" fill="white"/>
     <path fill-rule="evenodd" clip-rule="evenodd" d="M26.1159 0.578247C31.6962 -0.581294 37.4808 0.0113766 42.7381 2.28129C47.9954 4.5512 52.4891 8.39636 55.6508 13.3304C58.8124 18.2644 60.5 24.0655 60.5 30C60.5 35.9345 58.8124 41.7357 55.6508 46.6697C52.4891 51.6037 47.9954 55.4488 42.7381 57.7187C37.4808 59.9886 31.6962 60.5813 26.1159 59.4218C20.5356 58.2622 15.4104 55.4026 11.3886 51.2046C10.4529 50.2278 10.4535 48.6449 11.39 47.669C12.3264 46.6931 13.8441 46.6938 14.7798 47.6705C18.1313 51.1688 22.4023 53.5519 27.0526 54.5181C31.7028 55.4844 36.5234 54.9905 40.9044 53.0989C45.2855 51.2074 49.0303 48.0031 51.665 43.8914C54.2997 39.7797 55.706 34.9454 55.706 30C55.706 25.0546 54.2997 20.2203 51.665 16.1086C49.0303 11.997 45.2855 8.79266 40.9044 6.90107C36.5234 5.00948 31.7028 4.51559 27.0526 5.48187C22.4023 6.44816 18.1313 8.83121 14.7798 12.3296L14.7767 12.3329L4.58943 22.9266C3.65196 23.9015 2.13427 23.8992 1.19957 22.9214C0.264864 21.9437 0.267099 20.3608 1.20456 19.3859L11.3886 8.79547C11.3891 8.79491 11.3897 8.79434 11.3902 8.79378C15.4117 4.59668 20.5363 1.73763 26.1159 0.578247Z" fill="white"/>
     <path fill-rule="evenodd" clip-rule="evenodd" d="M28.0581 10.7446C28.0521 10.093 28.5755 9.55923 29.2271 9.55241L35.9014 9.48255C36.553 9.47573 37.0862 9.99845 37.0922 10.6501C37.0982 11.3017 36.5748 11.8355 35.9232 11.8423L29.2489 11.9122C28.5972 11.919 28.0641 11.3963 28.0581 10.7446Z" fill="white"/>
     <path fill-rule="evenodd" clip-rule="evenodd" d="M31.0627 9.54516C31.7086 9.63056 32.1623 10.2235 32.0761 10.8696L30.5152 22.5672C30.4919 22.7419 30.4298 22.9092 30.3334 23.0568L27.2378 27.7982L27.3973 45.0985C27.3973 45.0997 27.3973 45.1009 27.3974 45.1021C27.4035 45.4146 27.5318 45.7121 27.7549 45.9308C27.9779 46.1495 28.2779 46.2719 28.5904 46.2719C28.5916 46.2719 28.5928 46.2719 28.594 46.2719L37.2114 46.1817C37.2127 46.1817 37.2139 46.1816 37.2152 46.1816C37.5276 46.1751 37.8252 46.0464 38.0441 45.8231C38.2631 45.5998 38.3859 45.2997 38.3863 44.9872C38.3863 44.986 38.3863 44.9848 38.3863 44.9835L38.2267 27.6832L35.0443 23.0075C34.9452 22.8619 34.8801 22.696 34.8535 22.5218L33.0773 10.8591C32.9792 10.215 33.4219 9.61263 34.0661 9.51372C34.7103 9.41481 35.3121 9.85679 35.4102 10.5009L37.1462 21.8991L40.379 26.6488C40.51 26.8413 40.581 27.0683 40.5832 27.3012L40.7461 44.9762C40.7478 45.9099 40.3821 46.8071 39.7281 47.4742C39.074 48.1413 38.1841 48.5245 37.2506 48.5412L37.2419 48.5414L28.5983 48.6318C27.6647 48.6347 26.7679 48.2701 26.1017 47.6168C25.4355 46.9636 25.0533 46.0742 25.0378 45.1407L25.0377 45.132L24.8748 27.4657C24.8727 27.2327 24.9395 27.0043 25.0669 26.8091L28.2115 21.9926L29.737 10.5603C29.8232 9.91425 30.4167 9.45976 31.0627 9.54516Z" fill="white"/>
     <path fill-rule="evenodd" clip-rule="evenodd" d="M24.9056 30.8027C24.8996 30.1511 25.4229 29.6173 26.0746 29.6105L39.4232 29.4708C40.0748 29.464 40.6079 29.9867 40.6139 30.6383C40.6199 31.2899 40.0966 31.8237 39.4449 31.8305L26.0963 31.9703C25.4447 31.9771 24.9116 31.4544 24.9056 30.8027Z" fill="white"/>
     <path fill-rule="evenodd" clip-rule="evenodd" d="M25.0133 42.4829C25.0073 41.8313 25.5306 41.2975 26.1823 41.2907L39.5309 41.151C40.1825 41.1441 40.7156 41.6669 40.7216 42.3185C40.7276 42.9701 40.2043 43.5039 39.5526 43.5107L26.204 43.6504C25.5524 43.6573 25.0193 43.1345 25.0133 42.4829Z" fill="white"/>
    </symbol> 

    <symbol viewBox="0 0 61 60" id="icon_diversity">
     <g clip-path="url(#clip0_535_775)">
      <path d="M30.5 0C14.1687 0 0.8825 13.0537 0.5075 29.295C0.8525 15.1237 11.63 3.75 24.875 3.75C38.3375 3.75 49.25 15.5025 49.25 30C49.25 33.105 51.77 35.625 54.875 35.625C57.98 35.625 60.5 33.105 60.5 30C60.5 13.4325 47.0675 0 30.5 0ZM30.5 60C46.8313 60 60.1175 46.9462 60.4925 30.705C60.1475 44.8762 49.37 56.25 36.125 56.25C22.6625 56.25 11.75 44.4975 11.75 30C11.75 26.895 9.23 24.375 6.125 24.375C3.02 24.375 0.5 26.895 0.5 30C0.5 46.5675 13.9325 60 30.5 60Z" fill="white"/>
      <path fill-rule="evenodd" clip-rule="evenodd" d="M30.875 36.3516C31.5352 36.3516 32.0703 36.8867 32.0703 37.5469V45.9141C32.0703 46.5742 31.5352 47.1094 30.875 47.1094C30.2148 47.1094 29.6797 46.5742 29.6797 45.9141V37.5469C29.6797 36.8867 30.2148 36.3516 30.875 36.3516Z" fill="white"/>
      <path fill-rule="evenodd" clip-rule="evenodd" d="M23.7031 45.9141C23.7031 45.2539 24.2383 44.7188 24.8984 44.7188H36.8516C37.5117 44.7188 38.0469 45.2539 38.0469 45.9141C38.0469 46.5742 37.5117 47.1094 36.8516 47.1094H24.8984C24.2383 47.1094 23.7031 46.5742 23.7031 45.9141Z" fill="white"/>
      <path fill-rule="evenodd" clip-rule="evenodd" d="M22.5568 14.4971C22.707 13.9892 23.1735 13.6406 23.7031 13.6406H38.0469C38.5765 13.6406 39.043 13.9892 39.1932 14.4971L43.0944 27.6954C43.4144 28.7958 43.3298 29.9744 42.856 31.0178C41.8143 33.3222 40.13 35.2773 38.0052 36.6487C35.8801 38.0204 33.4044 38.7499 30.875 38.7499C28.3456 38.7499 25.87 38.0204 23.7448 36.6487C21.6196 35.2771 19.9352 33.3216 18.8935 31.0167C18.4201 29.9736 18.3357 28.7954 18.6557 27.6954L18.6571 27.6904L22.5568 14.4971ZM24.5963 16.0313L20.9512 28.363C20.951 28.3638 20.9507 28.3645 20.9505 28.3653C20.7907 28.9167 20.8334 29.5072 21.071 30.0299L21.0719 30.0321C21.9243 31.9179 23.3024 33.5179 25.0412 34.6401C26.78 35.7624 28.8055 36.3593 30.875 36.3593C32.9445 36.3593 34.97 35.7624 36.7088 34.6401C38.4476 33.5179 39.8257 31.9179 40.6781 30.0321L40.6791 30.0299C40.9166 29.5072 40.9593 28.9167 40.7995 28.3652C40.7993 28.3645 40.799 28.3638 40.7988 28.363L37.1538 16.0313H24.5963Z" fill="white"/>
      <path fill-rule="evenodd" clip-rule="evenodd" d="M30.3413 27.8586C25.4642 25.4272 22.2011 26.5934 20.9074 27.289C20.326 27.6017 19.6012 27.3838 19.2885 26.8024C18.9759 26.221 19.1938 25.4962 19.7752 25.1835C21.6491 24.1759 25.737 22.8917 31.4083 25.7194L31.4095 25.72C36.5939 28.3122 39.9703 26.8224 41.0841 26.1637C41.6523 25.8276 42.3854 26.0158 42.7214 26.5841C43.0575 27.1523 42.8692 27.8853 42.301 28.2214C40.6358 29.2062 36.3924 30.8839 30.3413 27.8586Z" fill="white"/>
     </g>
     <defs>
      <clipPath id="clip0_535_775">
       <rect width="60" height="60" fill="white" transform="translate(0.5)"/>
      </clipPath>
     </defs>
    </symbol> 

    <symbol viewBox="0 0 61 60" id="icon_increase_sales">
      <path fill-rule="evenodd" clip-rule="evenodd" d="M57.5781 5.15625C58.9588 5.15625 60.0781 6.27554 60.0781 7.65625V20.1562C60.0781 21.537 58.9588 22.6562 57.5781 22.6562H45.0781C43.6974 22.6562 42.5781 21.537 42.5781 20.1562C42.5781 18.7755 43.6974 17.6562 45.0781 17.6562H55.0781V7.65625C55.0781 6.27554 56.1974 5.15625 57.5781 5.15625Z" fill="white"/>
      <path fill-rule="evenodd" clip-rule="evenodd" d="M33.9474 5.48187C29.2972 4.51559 24.4766 5.00948 20.0956 6.90107C15.7145 8.79266 11.9697 11.997 9.33501 16.1086C6.70029 20.2203 5.29399 25.0546 5.29399 30C5.29399 34.9454 6.70029 39.7797 9.33501 43.8914C11.9697 48.0031 15.7145 51.2074 20.0956 53.0989C24.4766 54.9905 29.2972 55.4844 33.9474 54.5181C38.5977 53.5519 42.8687 51.1688 46.2202 47.6705C47.1559 46.6938 48.6736 46.6931 49.61 47.669C50.5465 48.6449 50.5471 50.2278 49.6114 51.2046C45.5896 55.4026 40.4644 58.2622 34.8841 59.4218C29.3038 60.5813 23.5192 59.9886 18.2619 57.7187C13.0046 55.4488 8.51089 51.6037 5.34923 46.6697C2.18757 41.7357 0.5 35.9345 0.5 30C0.5 24.0655 2.18757 18.2644 5.34923 13.3304C8.51089 8.39636 13.0046 4.55119 18.2619 2.28129C23.5192 0.0113766 29.3038 -0.581294 34.8841 0.578247C40.4638 1.73766 45.5885 4.59683 49.6101 8.79411C49.6097 8.79366 49.6105 8.79456 49.6101 8.79411L59.7954 19.3859C60.7329 20.3608 60.7351 21.9437 59.8004 22.9214C58.8657 23.8992 57.348 23.9015 56.4106 22.9266L46.2202 12.3296C42.8687 8.83121 38.5977 6.44816 33.9474 5.48187Z" fill="white"/>
      <path fill-rule="evenodd" clip-rule="evenodd" d="M19.1657 38.25C19.1657 37.601 19.6918 37.075 20.3407 37.075H33.2657C33.9146 37.075 34.4407 37.601 34.4407 38.25C34.4407 38.8989 33.9146 39.425 33.2657 39.425H20.3407C19.6918 39.425 19.1657 38.8989 19.1657 38.25Z" fill="white"/>
      <path fill-rule="evenodd" clip-rule="evenodd" d="M23.8657 18.2749C23.8657 17.6259 24.3918 17.0999 25.0407 17.0999H33.8532C36.1904 17.0999 38.4319 18.0283 40.0846 19.681C41.7373 21.3336 42.6657 23.5751 42.6657 25.9124C42.6657 28.2496 41.7373 30.4911 40.0846 32.1437C38.4319 33.7964 36.1904 34.7249 33.8532 34.7249H26.2157V44.1248C26.2157 44.7738 25.6896 45.2999 25.0407 45.2999C24.3918 45.2999 23.8657 44.7738 23.8657 44.1248V34.7249H20.3407C19.6918 34.7249 19.1657 34.1988 19.1657 33.5499C19.1657 32.9009 19.6918 32.3749 20.3407 32.3749H23.8657V18.2749ZM26.2157 32.3749H33.8532C35.5672 32.3749 37.2109 31.694 38.4229 30.482C39.6348 29.2701 40.3157 27.6263 40.3157 25.9124C40.3157 24.1984 39.6348 22.5546 38.4229 21.3427C37.2109 20.1307 35.5672 19.4499 33.8532 19.4499H26.2157V32.3749Z" fill="white"/>
    </symbol> 

  <!-- socials -->
    <symbol  xmlns="http://www.w3.org/2000/svg" viewBox="0 0 24 24" id="telegram">
      <path d="M12 24C18.6274 24 24 18.6274 24 12C24 5.37258 18.6274 0 12 0C5.37258 0 0 5.37258 0 12C0 18.6274 5.37258 24 12 24Z"></path>
      <path fill-rule="evenodd" clip-rule="evenodd" d="M5.43189 11.8733C8.93014 10.3492 11.2628 9.3444 12.43 8.85893C15.7626 7.47282 16.455 7.23203 16.9064 7.22408C17.0056 7.22234 17.2276 7.24694 17.3714 7.3636C17.4928 7.46211 17.5262 7.59518 17.5422 7.68857C17.5581 7.78197 17.578 7.99473 17.5622 8.16097C17.3816 10.0585 16.6002 14.6631 16.2027 16.7884C16.0345 17.6876 15.7032 17.9891 15.3826 18.0186C14.6857 18.0828 14.1566 17.5581 13.4816 17.1157C12.4255 16.4233 11.8288 15.9924 10.8036 15.3168C9.61884 14.536 10.3869 14.1069 11.0621 13.4056C11.2388 13.2221 14.3092 10.4293 14.3686 10.176C14.376 10.1443 14.3829 10.0262 14.3128 9.96385C14.2426 9.90148 14.139 9.92281 14.0643 9.93977C13.9584 9.96381 12.2712 11.079 9.00264 13.2853C8.52373 13.6142 8.08994 13.7744 7.70129 13.766C7.27283 13.7568 6.44864 13.5238 5.83594 13.3246C5.08444 13.0803 4.48716 12.9512 4.53917 12.5363C4.56626 12.3202 4.86383 12.0992 5.43189 11.8733Z" fill="white"></path>
    </symbol>
    <symbol  xmlns="http://www.w3.org/2000/svg" viewBox="0 0 24 24" id="whatsapp">
      <path d="M0 11.52C0 6.0894 0 3.37413 1.68706 1.68706C3.37413 0 6.0894 0 11.52 0H12.48C17.9106 0 20.6258 0 22.3129 1.68706C24 3.37413 24 6.0894 24 11.52V12.48C24 17.9106 24 20.6258 22.3129 22.3129C20.6258 24 17.9106 24 12.48 24H11.52C6.0894 24 3.37413 24 1.68706 22.3129C0 20.6258 0 17.9106 0 12.48V11.52Z" ></path>
      <path d="M8.83231 16.7908L9.05203 16.8994C9.96763 17.4424 10.993 17.6958 12.0184 17.6958C15.2411 17.6958 17.8779 15.0895 17.8779 11.9042C17.8779 10.3839 17.2553 8.89977 16.1567 7.81383C15.058 6.72789 13.5931 6.11256 12.0184 6.11256C8.79572 6.11256 6.15891 8.71878 6.19555 11.9404C6.19555 13.0263 6.52515 14.076 7.07446 14.9809L7.22093 15.1982L6.63503 17.3338L8.83231 16.7908Z"></path>
      <path d="M16.7792 7.23466C15.5341 5.96777 13.8129 5.28 12.055 5.28C8.31964 5.28 5.31665 8.28438 5.35324 11.9403C5.35324 13.0987 5.68283 14.2208 6.23219 15.2343L5.28 18.6731L8.83231 17.7681C9.82109 18.3111 10.9197 18.5645 12.0184 18.5645C15.7172 18.5645 18.7202 15.5601 18.7202 11.9042C18.7202 10.1305 18.0243 8.46538 16.7792 7.23466ZM12.055 17.4424C11.0662 17.4424 10.0774 17.1891 9.23514 16.6823L9.01543 16.5737L6.89138 17.1166L7.44069 15.0534L7.29421 14.8362C5.68283 12.2662 6.45191 8.86355 9.08867 7.27083C11.7254 5.67817 15.1313 6.43833 16.7426 9.04455C18.354 11.6508 17.5849 15.0172 14.9482 16.6099C14.1058 17.1528 13.0805 17.4424 12.055 17.4424ZM15.2777 13.4245L14.8749 13.2435C14.8749 13.2435 14.289 12.9901 13.9228 12.8091C13.8861 12.8091 13.8495 12.7729 13.8129 12.7729C13.703 12.7729 13.6298 12.8092 13.5565 12.8454C13.5565 12.8454 13.5199 12.8815 13.0072 13.4607C12.9706 13.5331 12.8973 13.5693 12.8241 13.5693H12.7874C12.7509 13.5693 12.6776 13.5331 12.641 13.4969L12.4579 13.4245C12.055 13.2435 11.6888 13.0263 11.3958 12.7368C11.3226 12.6644 11.2127 12.592 11.1395 12.5196C10.8831 12.2662 10.6268 11.9766 10.4437 11.6508L10.407 11.5784C10.3705 11.5422 10.3705 11.506 10.3338 11.4337C10.3338 11.3613 10.3338 11.2889 10.3705 11.2527C10.3705 11.2527 10.5169 11.0717 10.6268 10.9631C10.7 10.8907 10.7366 10.7821 10.8099 10.7097C10.8831 10.6011 10.9198 10.4563 10.8831 10.3477C10.8465 10.1667 10.407 9.18938 10.2972 8.97221C10.2239 8.8636 10.1507 8.82743 10.0409 8.79121H9.63803C9.56474 8.79121 9.49155 8.82743 9.41826 8.82743L9.38161 8.8636C9.30838 8.89982 9.23514 8.97221 9.1619 9.00838C9.08867 9.08082 9.05202 9.15316 8.97878 9.2256C8.72242 9.55138 8.57595 9.94954 8.57595 10.3477C8.57595 10.6373 8.64919 10.9269 8.75907 11.1803L8.79571 11.2889C9.12531 11.9766 9.56473 12.592 10.1507 13.1349L10.2972 13.2797C10.407 13.3883 10.5169 13.4607 10.5902 13.5693C11.3592 14.2209 12.2381 14.6914 13.2269 14.9448C13.3368 14.981 13.4833 14.981 13.5932 15.0172H13.9594C14.1425 15.0172 14.3622 14.9448 14.5087 14.8724C14.6185 14.8 14.6918 14.8 14.765 14.7276L14.8383 14.6552C14.9115 14.5828 14.9848 14.5466 15.058 14.4743C15.1313 14.4019 15.2045 14.3295 15.2411 14.257C15.3144 14.1123 15.351 13.9313 15.3876 13.7503V13.4969C15.3876 13.4969 15.351 13.4607 15.2777 13.4245Z" fill="white"></path>
    </symbol>
    <symbol  xmlns="http://www.w3.org/2000/svg" viewBox="0 0 24 25" id="phone">
      <path d="M16.5 15.4062C15 16.9062 15 18.4062 13.5 18.4062C12 18.4062 10.5 16.9062 9 15.4062C7.5 13.9062 6 12.4062 6 10.9062C6 9.40625 7.5 9.40625 9 7.90625C10.5 6.40625 6 1.90625 4.5 1.90625C3 1.90625 0 6.40625 0 6.40625C0 9.40625 3.0825 15.4887 6 18.4062C8.9175 21.3237 15 24.4062 18 24.4062C18 24.4062 22.5 21.4062 22.5 19.9062C22.5 18.4062 18 13.9062 16.5 15.4062Z" />
    </symbol>
    <symbol  xmlns="http://www.w3.org/2000/svg" viewBox="0 0 24 24" id="menu">
        <path fill-rule="evenodd" clip-rule="evenodd" d="M19.75 12C19.75 11.5858 19.4142 11.25 19 11.25H5C4.58579 11.25 4.25 11.5858 4.25 12C4.25 12.4142 4.58579 12.75 5 12.75H19C19.4142 12.75 19.75 12.4142 19.75 12Z"/>
        <path fill-rule="evenodd" clip-rule="evenodd" d="M19.75 7C19.75 6.58579 19.4142 6.25 19 6.25H5C4.58579 6.25 4.25 6.58579 4.25 7C4.25 7.41421 4.58579 7.75 5 7.75H19C19.4142 7.75 19.75 7.41421 19.75 7Z"/>
        <path fill-rule="evenodd" clip-rule="evenodd" d="M19.75 17C19.75 16.5858 19.4142 16.25 19 16.25H5C4.58579 16.25 4.25 16.5858 4.25 17C4.25 17.4142 4.58579 17.75 5 17.75H19C19.4142 17.75 19.75 17.4142 19.75 17Z"/>
    </symbol>


  <!-- trade-in -->
    <symbol viewBox="0 0 109 108" id="discount">
      <path fill-rule="evenodd" clip-rule="evenodd" d="M38.0643 18.3609C36.5426 17.9493 34.9618 18.7857 34.4461 20.2753L32.4207 26.125C32.0663 27.1487 31.1875 27.9018 30.1217 28.0953L23.9591 29.2141C22.3977 29.4975 21.3271 30.9479 21.5163 32.5235L22.2356 38.5127C22.3666 39.6034 21.8909 40.6785 20.9957 41.3152L15.9462 44.9063C14.6337 45.8397 14.2925 47.6429 15.1731 48.9914L18.4028 53.937C19.0142 54.8731 19.0542 56.0715 18.5068 57.0463L15.5502 62.3112C14.7523 63.7321 15.2346 65.5302 16.6365 66.361L21.72 69.3735C22.6894 69.948 23.2551 71.0172 23.1847 72.1418L22.8155 78.0394C22.7136 79.6658 23.9288 81.0761 25.5525 81.2158L31.5685 81.7333C32.6824 81.8292 33.6506 82.5365 34.0806 83.5685L36.3524 89.021C36.9719 90.5076 38.6547 91.2399 40.1648 90.68L45.9743 88.5256C47.0044 88.1436 48.1608 88.3552 48.9888 89.0771L53.5358 93.0411C54.7319 94.0839 56.5333 94.0148 57.646 92.8834L62.0379 88.4179C62.7975 87.6456 63.9145 87.3427 64.9602 87.6256L70.9358 89.242C72.4576 89.6537 74.0383 88.8173 74.5541 87.3276L76.5794 81.4779C76.9338 80.4543 77.8126 79.7012 78.8784 79.5077L85.0411 78.3889C86.6025 78.1055 87.673 76.6551 87.4838 75.0795L86.7645 69.0903C86.6335 67.9995 87.1092 66.9244 88.0044 66.2878L93.0539 62.6967C94.3664 61.7633 94.7076 59.9601 93.827 58.6116L90.5973 53.6659C89.986 52.7299 89.9459 51.5315 90.4933 50.5567L93.4499 45.2918C94.2479 43.8709 93.7656 42.0728 92.3636 41.242L87.2801 38.2294C86.3107 37.655 85.745 36.5857 85.8154 35.4611L86.1847 29.5636C86.2865 27.9371 85.0713 26.5268 83.4477 26.3872L77.4316 25.8696C76.3177 25.7738 75.3495 25.0665 74.9195 24.0345L72.6477 18.582C72.0282 17.0953 70.3454 16.363 68.8354 16.923L63.0258 19.0774C61.9958 19.4594 60.8393 19.2478 60.0113 18.5259L55.4644 14.5619C54.2682 13.519 52.4668 13.5881 51.3541 14.7196L46.9622 19.1851C46.2026 19.9574 45.0856 20.2603 44.0399 19.9774L38.0643 18.3609ZM44.5155 55.0101C47.6262 53.3642 48.8455 49.5684 47.2389 46.5319C45.6323 43.4954 41.8082 42.3681 38.6975 44.0139C35.5868 45.6598 34.3675 49.4556 35.9741 52.4921C37.5806 55.5286 41.4048 56.6559 44.5155 55.0101ZM73.6189 54.7971C75.2255 57.8336 74.0061 61.6294 70.8954 63.2753C67.7847 64.9211 63.9606 63.7938 62.354 60.7573C60.7474 57.7208 61.9668 53.925 65.0775 52.2791C68.1882 50.6333 72.0123 51.7606 73.6189 54.7971ZM57.5252 37.8388C57.4285 35.9198 55.7757 34.4402 53.8335 34.534C51.8913 34.6279 50.3952 36.2596 50.4919 38.1787L52.0678 69.45C52.1645 71.3691 53.8173 72.8487 55.7595 72.7548C57.7017 72.661 59.1978 71.0292 59.1011 69.1102L57.5252 37.8388Z"></path>
    </symbol>
    <symbol viewBox="0 0 80 80" id="estimation">
        <path d="M53.9942 23.988V20.0017C53.9942 16.2893 52.5194 12.7289 49.8943 10.1039C47.2693 7.47878 43.7089 6.00403 39.9965 6.00403C36.284 6.00403 32.7237 7.47878 30.0986 10.1039C27.4735 12.7289 25.9988 16.2893 25.9988 20.0017V23.988H14.0048V73.9889H66.0023V23.988H53.9942ZM30.0062 19.9876C30.0062 17.3352 31.0598 14.7915 32.9354 12.9159C34.8109 11.0404 37.3547 9.98674 40.0071 9.98674C42.6595 9.98674 45.2032 11.0404 47.0787 12.9159C48.9543 14.7915 50.0079 17.3352 50.0079 19.9876V23.988H29.9991L30.0062 19.9876Z"></path>
    </symbol>
  <symbol viewBox="0 0 81 80" id="netting">
      <path d="M49.6823 18.9294C52.4959 17.9452 53.979 14.8664 52.9948 12.0527C52.0105 9.23905 48.9317 7.756 46.118 8.74023C43.3044 9.72446 41.8213 12.8033 42.8055 15.6169C43.7898 18.4306 46.8686 19.9137 49.6823 18.9294Z"></path>
      <path d="M24.0764 15.6876C25.1042 12.8896 23.6692 9.78809 20.8711 8.76028C18.0731 7.73246 14.9716 9.16751 13.9438 11.9656C12.916 14.7636 14.351 17.8651 17.1491 18.8929C19.9471 19.9207 23.0486 18.4857 24.0764 15.6876Z"></path>
      <path d="M32.5169 41.2735L30.1322 43.7429C26.5408 41.2573 23.2291 38.3903 20.2548 35.1919L19.0977 41.8379C20.4052 46.1446 21.4815 50.5181 22.322 54.9396C23.218 60.4145 23.091 64.9582 23.0275 69.9745H18.5262C17.5879 62.8345 14.6882 52.9924 14.6882 52.9924L9.04393 69.9886H4.52148C4.52148 69.9886 8.26079 47.708 8.82521 44.3144C9.38964 40.9208 11.5062 28.4399 12.0001 25.6178C12.1101 24.9867 12.3434 24.3835 12.6866 23.8426C13.0298 23.3017 13.4763 22.8338 14.0005 22.4656C14.5247 22.0973 15.1163 21.836 15.7415 21.6965C16.3668 21.5571 17.0133 21.5422 17.6443 21.6527C20.3183 22.1184 21.3836 24.1574 23.2533 27.7062C25.8832 32.5249 28.9864 37.0697 32.5169 41.2735Z"></path>
      <path d="M44.4895 51.151C43.2337 56.513 42.9091 63.145 42.7116 69.1349V69.9957H47.1705C48.1733 63.8626 49.7561 57.8385 51.8976 52.0046C53.605 56.1532 55.7498 64.4996 57.6265 69.9957H62.1771C61.1753 63.2155 60.3287 56.4424 59.0587 49.7187C58.4308 46.4733 57.5136 43.2772 57.0197 40.0106C56.5893 37.1885 56.1237 34.3664 55.6722 31.5443C55.6398 31.0444 55.5619 30.5484 55.4393 30.0627C57.7577 30.6022 59.8863 31.7605 61.5984 33.4142C63.3105 35.0679 64.5419 37.155 65.1615 39.4533H65.2109L68.6045 38.6631C68.4273 36.5971 67.9001 34.5764 67.0453 32.6872C65.8701 30.0967 64.0745 27.8359 61.8173 26.1047C59.3322 24.2311 56.5001 22.869 53.485 22.0972C50.7264 21.3776 47.4316 21.1659 45.7383 23.9881L40.0094 32.7437L34.1323 41.2806L36.7357 43.503L46.2604 34.7403L47.3751 41.7956C46.2084 44.8472 45.2444 47.9724 44.4895 51.151Z"></path>
      <path d="M76.5427 38.8679L59.9915 42.7317L62.2642 52.4673L78.8154 48.6035L76.5427 38.8679Z"></path>
      <path d="M49.6823 18.9294C52.4959 17.9452 53.979 14.8664 52.9948 12.0527C52.0105 9.23905 48.9317 7.756 46.118 8.74023C43.3044 9.72446 41.8213 12.8033 42.8055 15.6169C43.7898 18.4306 46.8686 19.9137 49.6823 18.9294Z"></path>
  </symbol>

  <symbol viewBox="0 0 731 531" id="pin">
      <path d="M285.21 120.399C315.821 104.674 393.69 83.1376 460.271 122.79" stroke="white" stroke-width="12.731" stroke-linecap="round"/>
<path d="M320.529 70.1308C345.073 60.2626 370.948 45.8291 413.522 68.8194" stroke="white" stroke-width="5.94112" stroke-linecap="round"/>
<path d="M66.7678 352.785C64.7825 318.427 76.6152 238.506 139.828 193.679" stroke="white" stroke-width="12.731" stroke-linecap="round"/>
<path d="M35.2066 300.182C36.0557 273.742 33.2621 244.246 71.4481 214.532" stroke="white" stroke-width="5.94112" stroke-linecap="round"/>
<path d="M678.906 358.759C677.128 319.95 656.645 231.628 588.932 188.816" stroke="white" stroke-width="12.731" stroke-linecap="round"/>
<path d="M704.529 295.948C700.799 266.365 700.355 232.917 659.163 204.097" stroke="white" stroke-width="5.94112" stroke-linecap="round"/>
<path d="M470.188 419.904C470.188 470.164 423.991 510.904 367 510.904C336.488 510.904 309.072 499.214 290.181 480.65L327.312 447.904H240V524.904L273.322 495.518C296.547 517.876 329.916 531.904 367 531.904C437.136 531.904 494 481.756 494 419.904H470.188Z" fill="white"/>
<path d="M458.597 237.315C436.012 215.556 403.562 201.904 367.5 201.904C299.297 201.904 244 250.709 244 310.904H267.156C267.156 261.99 312.079 222.341 367.5 222.341C397.171 222.341 423.831 233.718 442.202 251.785L406.094 283.654H491V208.716L458.597 237.315Z" fill="white"/>
<rect x="139.221" y="300.68" width="456" height="129" rx="5" fill="#A31886"/>
<path d="M208.44 396.68H196.331V349.649H180.823V339.571H223.948V349.649H208.44V396.68ZM249.377 339.571C254.56 339.571 258.831 340.196 262.19 341.446C265.575 342.696 268.088 344.584 269.729 347.11C271.37 349.636 272.19 352.826 272.19 356.68C272.19 359.284 271.695 361.563 270.706 363.516C269.716 365.469 268.414 367.123 266.799 368.477C265.185 369.831 263.44 370.938 261.565 371.797L278.362 396.68H264.924L251.292 374.766H244.846V396.68H232.737V339.571H249.377ZM248.518 349.492H244.846V364.922H248.752C252.763 364.922 255.627 364.258 257.346 362.93C259.091 361.576 259.963 359.597 259.963 356.992C259.963 354.284 259.026 352.357 257.151 351.211C255.302 350.065 252.424 349.492 248.518 349.492ZM320.51 396.68L316.37 383.086H295.549L291.409 396.68H278.362L298.518 339.336H313.323L333.557 396.68H320.51ZM313.479 372.93L309.338 359.649C309.078 358.763 308.726 357.63 308.284 356.25C307.867 354.844 307.437 353.425 306.995 351.992C306.578 350.534 306.239 349.271 305.979 348.203C305.719 349.271 305.354 350.599 304.885 352.188C304.443 353.75 304.013 355.235 303.596 356.641C303.18 358.047 302.88 359.05 302.698 359.649L298.596 372.93H313.479ZM388.167 367.578C388.167 374.011 386.93 379.388 384.456 383.711C382.008 388.008 378.453 391.25 373.792 393.438C369.13 395.599 363.518 396.68 356.956 396.68H340.784V339.571H358.713C364.703 339.571 369.898 340.638 374.299 342.774C378.7 344.883 382.112 348.021 384.534 352.188C386.956 356.328 388.167 361.459 388.167 367.578ZM375.588 367.891C375.588 363.672 374.963 360.209 373.713 357.5C372.489 354.766 370.667 352.748 368.245 351.446C365.849 350.143 362.88 349.492 359.338 349.492H352.893V386.68H358.088C364 386.68 368.388 385.104 371.252 381.953C374.143 378.802 375.588 374.115 375.588 367.891ZM432.893 396.68H400.002V339.571H432.893V349.492H412.112V362.031H431.448V371.953H412.112V386.68H432.893V396.68ZM440.042 380.117V370.352H461.018V380.117H440.042Z" fill="white"/>
<path d="M470.627 396.68V339.571H482.737V396.68H470.627ZM547.776 396.68H532.385L507.542 353.477H507.19C507.294 355.274 507.385 357.084 507.463 358.906C507.542 360.729 507.62 362.552 507.698 364.375C507.776 366.172 507.854 367.982 507.932 369.805V396.68H497.112V339.571H512.385L537.19 382.344H537.463C537.411 380.573 537.346 378.815 537.268 377.071C537.19 375.326 537.112 373.581 537.034 371.836C536.982 370.091 536.93 368.347 536.877 366.602V339.571H547.776V396.68Z"/>
    </symbol>

   <symbol viewBox="0 0 15 15" id="circle">
      <circle cx="7.5" cy="7.5" r="7.5"/>
    </symbol> 


    <!-- video -->
    <symbol viewBox="0 0 14 17" id="sound">
      <path d="M11.1882 0.765597L5.01572 5.67385C4.56951 5.43215 4.05824 5.30201 3.51907 5.30201C1.77144 5.30201 0.358459 6.71499 0.358459 8.46262C0.358459 10.2103 1.77144 11.6232 3.51907 11.6232C4.05824 11.6232 4.56951 11.4838 5.01572 11.2514L11.1882 16.1689C11.997 16.8104 13.1868 16.234 13.1868 15.2022V1.72308C13.1868 0.69123 11.997 0.114883 11.1882 0.765597Z"/>
    </symbol>

    <!-- screen-menu -->
<symbol viewBox="0 0 24 24" id="close">
  <path d="M16.2667 12L23.2 5.06667C24.2667 4 24.2667 2.4 23.2 1.46667L22.6667 0.933333C21.6 -0.133333 20 -0.133333 19.0667 0.933333L12 7.73333L5.06667 0.8C4 -0.266667 2.4 -0.266667 1.33333 0.8L0.8 1.33333C-0.266667 2.4 -0.266667 4 0.8 4.93333L7.73333 12L0.8 18.9333C-0.266667 20 -0.266667 21.6 0.8 22.5333L1.33333 23.2C2.4 24.2667 4 24.2667 4.93333 23.2L12 16.2667L18.9333 23.2C20 24.2667 21.6 24.2667 22.5333 23.2L23.0667 22.6667C24.1333 21.6 24.1333 20 23.0667 19.0667L16.2667 12Z"/>
</symbol>

</svg>
  