<svg width="25" height="24" viewBox="0 0 25 24" fill="none" xmlns="http://www.w3.org/2000/svg">
<g clip-path="url(#clip0_535_758)">
<path d="M12.4999 24C19.1273 24 24.4999 18.6274 24.4999 12C24.4999 5.37258 19.1273 0 12.4999 0C5.87246 0 0.499878 5.37258 0.499878 12C0.499878 18.6274 5.87246 24 12.4999 24Z" fill="url(#paint0_linear_535_758)"/>
<path fill-rule="evenodd" clip-rule="evenodd" d="M5.93177 11.8733C9.43001 10.3492 11.7627 9.3444 12.9299 8.85893C16.2624 7.47282 16.9549 7.23203 17.4062 7.22408C17.5055 7.22234 17.7275 7.24694 17.8712 7.3636C17.9926 7.46211 18.026 7.59518 18.042 7.68857C18.058 7.78197 18.0779 7.99473 18.0621 8.16097C17.8815 10.0585 17.1001 14.6631 16.7026 16.7884C16.5343 17.6876 16.2031 17.9891 15.8825 18.0186C15.1856 18.0828 14.6564 17.5581 13.9815 17.1157C12.9253 16.4233 12.3287 15.9924 11.3035 15.3168C10.1187 14.536 10.8868 14.1069 11.562 13.4056C11.7387 13.2221 14.8091 10.4293 14.8685 10.176C14.8759 10.1443 14.8828 10.0262 14.8126 9.96385C14.7425 9.90148 14.6389 9.92281 14.5642 9.93977C14.4583 9.96381 12.771 11.079 9.50252 13.2853C9.02361 13.6142 8.58982 13.7744 8.20117 13.766C7.7727 13.7568 6.94851 13.5238 6.33582 13.3246C5.58431 13.0803 4.98704 12.9512 5.03905 12.5363C5.06614 12.3202 5.36371 12.0992 5.93177 11.8733Z" fill="white"/>
</g>
<defs>
<linearGradient id="paint0_linear_535_758" x1="12.4999" y1="0" x2="12.4999" y2="23.822" gradientUnits="userSpaceOnUse">
<stop stop-color="#2CA4E0"/>
<stop offset="1" stop-color="#0D83BF"/>
</linearGradient>
<clipPath id="clip0_535_758">
<rect width="24" height="24" fill="white" transform="translate(0.499878)"/>
</clipPath>
</defs>
</svg>
