<svg width="25" height="24" viewBox="0 0 25 24" fill="none" xmlns="http://www.w3.org/2000/svg">
<g clip-path="url(#clip0_535_757)">
<path d="M0.499878 11.52C0.499878 6.0894 0.499878 3.37413 2.18694 1.68706C3.87401 0 6.58928 0 12.0199 0H12.9799C18.4105 0 21.1257 0 22.8128 1.68706C24.4999 3.37413 24.4999 6.0894 24.4999 11.52V12.48C24.4999 17.9106 24.4999 20.6258 22.8128 22.3129C21.1257 24 18.4105 24 12.9799 24H12.0199C6.58928 24 3.87401 24 2.18694 22.3129C0.499878 20.6258 0.499878 17.9106 0.499878 12.48V11.52Z" fill="url(#paint0_linear_535_757)"/>
<path d="M9.33219 16.7908L9.5519 16.8994C10.4675 17.4424 11.4929 17.6958 12.5183 17.6958C15.741 17.6958 18.3778 15.0895 18.3778 11.9042C18.3778 10.3839 17.7552 8.89977 16.6566 7.81383C15.5579 6.72789 14.093 6.11256 12.5183 6.11256C9.2956 6.11256 6.65879 8.71878 6.69543 11.9404C6.69543 13.0263 7.02503 14.076 7.57433 14.9809L7.72081 15.1982L7.13491 17.3338L9.33219 16.7908Z" fill="#31D652"/>
<path d="M17.2791 7.23466C16.034 5.96777 14.3128 5.28 12.5549 5.28C8.81952 5.28 5.81652 8.28438 5.85312 11.9403C5.85312 13.0987 6.18271 14.2208 6.73207 15.2343L5.77988 18.6731L9.33218 17.7681C10.321 18.3111 11.4196 18.5645 12.5183 18.5645C16.2171 18.5645 19.2201 15.5601 19.2201 11.9042C19.2201 10.1305 18.5242 8.46538 17.2791 7.23466ZM12.5549 17.4424C11.5661 17.4424 10.5773 17.1891 9.73502 16.6823L9.51531 16.5737L7.39126 17.1166L7.94057 15.0534L7.79409 14.8362C6.18271 12.2662 6.95178 8.86355 9.58854 7.27083C12.2253 5.67817 15.6311 6.43833 17.2425 9.04455C18.8538 11.6508 18.0848 15.0172 15.4481 16.6099C14.6057 17.1528 13.5803 17.4424 12.5549 17.4424ZM15.7776 13.4245L15.3748 13.2435C15.3748 13.2435 14.7889 12.9901 14.4226 12.8091C14.386 12.8091 14.3494 12.7729 14.3128 12.7729C14.2029 12.7729 14.1296 12.8092 14.0564 12.8454C14.0564 12.8454 14.0198 12.8815 13.5071 13.4607C13.4704 13.5331 13.3972 13.5693 13.324 13.5693H13.2873C13.2507 13.5693 13.1775 13.5331 13.1409 13.4969L12.9577 13.4245C12.5549 13.2435 12.1887 13.0263 11.8957 12.7368C11.8225 12.6644 11.7126 12.592 11.6394 12.5196C11.383 12.2662 11.1266 11.9766 10.9436 11.6508L10.9069 11.5784C10.8703 11.5422 10.8703 11.506 10.8337 11.4337C10.8337 11.3613 10.8337 11.2889 10.8703 11.2527C10.8703 11.2527 11.0168 11.0717 11.1266 10.9631C11.1999 10.8907 11.2365 10.7821 11.3098 10.7097C11.383 10.6011 11.4196 10.4563 11.383 10.3477C11.3464 10.1667 10.9069 9.18938 10.7971 8.97221C10.7238 8.8636 10.6506 8.82743 10.5407 8.79121H10.1379C10.0646 8.79121 9.99143 8.82743 9.91814 8.82743L9.88149 8.8636C9.80826 8.89982 9.73502 8.97221 9.66178 9.00838C9.58854 9.08082 9.5519 9.15316 9.47866 9.2256C9.2223 9.55138 9.07583 9.94954 9.07583 10.3477C9.07583 10.6373 9.14907 10.9269 9.25895 11.1803L9.29559 11.2889C9.62519 11.9766 10.0646 12.592 10.6506 13.1349L10.7971 13.2797C10.9069 13.3883 11.0168 13.4607 11.09 13.5693C11.8591 14.2209 12.738 14.6914 13.7268 14.9448C13.8367 14.981 13.9832 14.981 14.093 15.0172H14.4592C14.6424 15.0172 14.8621 14.9448 15.0086 14.8724C15.1184 14.8 15.1917 14.8 15.2649 14.7276L15.3382 14.6552C15.4114 14.5828 15.4847 14.5466 15.5579 14.4743C15.6311 14.4019 15.7044 14.3295 15.741 14.257C15.8143 14.1123 15.8508 13.9313 15.8875 13.7503V13.4969C15.8875 13.4969 15.8508 13.4607 15.7776 13.4245Z" fill="white"/>
</g>
<defs>
<linearGradient id="paint0_linear_535_757" x1="12.4999" y1="0" x2="12.4999" y2="24" gradientUnits="userSpaceOnUse">
<stop stop-color="#42E760"/>
<stop offset="0.765625" stop-color="#29CB4A"/>
</linearGradient>
<clipPath id="clip0_535_757">
<rect width="24" height="24" fill="white" transform="translate(0.499878)"/>
</clipPath>
</defs>
</svg>
